<svg xmlns="http://www.w3.org/2000/svg" viewBox="0 0 192 32" shape-rendering="crispEdges">
  <path d="M8 4h176l4 4v16l-4 4H8l-4-4V8z" fill="#2d2340"/>
  <path d="M8 4h176l4 4H4z" fill="#ddd4ff"/>
  <path d="M4 24h184l-4 4H8z" fill="#5b4a82"/>
  <path d="M4 8l4-4v24l-4-4z" fill="#beafff"/>
  <path d="M188 8l-4-4v24l4-4z" fill="#6b5797"/>
  <path d="M14 10h164l2 2v8l-2 2H14l-2-2v-8z" fill="#1d172b"/>
  <path d="M14 10h164l2 2H12z" fill="#8673c6" opacity="0.9"/>
  <path d="M12 20h168l-2 2H14z" fill="#34284b" opacity="0.95"/>
  <rect x="20" y="13" width="148" height="6" fill="#2b223d"/>
  <rect x="24" y="14" width="132" height="1" fill="#ab9ae8" opacity="0.45"/>
</svg>
