<svg xmlns="http://www.w3.org/2000/svg" viewBox="0 0 192 32" shape-rendering="crispEdges">
  <path d="M8 4h176l4 4v16l-4 4H8l-4-4V8z" fill="#4a3314"/>
  <path d="M8 4h176l4 4H4z" fill="#ffe7b7"/>
  <path d="M4 24h184l-4 4H8z" fill="#896124"/>
  <path d="M4 8l4-4v24l-4-4z" fill="#ffd489"/>
  <path d="M188 8l-4-4v24l4-4z" fill="#9a6b28"/>
  <path d="M14 10h164l2 2v8l-2 2H14l-2-2v-8z" fill="#2b1d0d"/>
  <path d="M14 10h164l2 2H12z" fill="#e7b35e" opacity="0.92"/>
  <path d="M12 20h168l-2 2H14z" fill="#57391a" opacity="0.96"/>
  <rect x="20" y="13" width="148" height="6" fill="#4c3212"/>
  <rect x="24" y="14" width="132" height="1" fill="#ffe2ae" opacity="0.34"/>
</svg>
