<svg xmlns="http://www.w3.org/2000/svg" width="1080" height="1920" viewBox="0 0 1080 1920">
  <defs>
    <style>
      .bg { fill:#1a1420; }
      .zone { fill:none; stroke:#6b7280; stroke-width:2; stroke-dasharray:10 10; }
      .panel { fill:#111827; stroke:#f59e0b; stroke-width:4; rx:24; }
      .label { fill:#e5e7eb; font: 28px Arial, sans-serif; }
      .title { fill:#ffffff; font: bold 64px Arial, sans-serif; }
      .ranked { fill:#fbbf24; font: bold 72px Arial, sans-serif; }
      .note { fill:#9ca3af; font: 22px Arial, sans-serif; }
      .hero { fill:#374151; stroke:#9ca3af; stroke-width:3; rx:32; }
    </style>
  </defs>
  <rect class="bg" x="0" y="0" width="1080" height="1920"/>
  <rect class="zone" x="0" y="0" width="1080" height="300"/>
  <rect class="zone" x="0" y="300" width="1080" height="1020"/>
  <rect class="zone" x="80" y="1320" width="920" height="280"/>
  <rect class="zone" x="0" y="1670" width="1080" height="250"/>

  <rect class="panel" x="20" y="40" width="1040" height="220" rx="24"/>
  <rect class="hero" x="40" y="70" width="160" height="160" rx="24"/>
  <text class="note" x="64" y="156">FOOD</text>
  <text class="title" x="230" y="130">FOOD NAME</text>
  <rect x="230" y="145" width="220" height="42" rx="18" fill="#7c3aed"/>
  <text class="label" x="260" y="174">FOOD TYPE</text>
  <rect x="790" y="70" width="240" height="160" rx="24" fill="#1f2937" stroke="#f59e0b" stroke-width="4"/>
  <text class="title" x="838" y="145">000</text>
  <text class="label" x="880" y="190">KCAL</text>

  <rect class="hero" x="180" y="330" width="720" height="720" rx="36"/>
  <text class="note" x="430" y="700">HERO IMAGE</text>

  <text class="title" x="180" y="1140">FOOD NAME</text>
  <text class="ranked" x="320" y="1240">RANKED</text>

  <rect x="80" y="1320" width="920" height="140" rx="28" fill="#0f172a" stroke="#60a5fa" stroke-width="3" opacity="0.95"/>
  <text class="label" x="340" y="1405">Subtitle safe zone</text>

  <g transform="translate(414,1710)">
    <circle cx="13" cy="13" r="13" fill="#fbbf24"/>
    <circle cx="59" cy="13" r="13" fill="#4b5563"/>
    <circle cx="105" cy="13" r="13" fill="#4b5563"/>
    <circle cx="151" cy="13" r="13" fill="#4b5563"/>
    <circle cx="197" cy="13" r="13" fill="#4b5563"/>
    <circle cx="243" cy="13" r="13" fill="#4b5563"/>
    <circle cx="289" cy="13" r="13" fill="#4b5563"/>
  </g>

  <text class="note" x="70" y="1880">Editable hook template: move title, hero, subtitle box, and header layout to match your vision.</text>
</svg>