<svg xmlns="http://www.w3.org/2000/svg" width="1080" height="1920" viewBox="0 0 1080 1920">
  <defs><style>
    .bg{fill:#15131f}.zone{fill:none;stroke:#6b7280;stroke-width:2;stroke-dasharray:10 10}.panel{fill:#111827;stroke:#f59e0b;stroke-width:4}.text{fill:#fff;font:700 28px Arial,sans-serif}.note{fill:#9ca3af;font:22px Arial,sans-serif}.bullet{fill:#1f2937;stroke:#22c55e;stroke-width:3}.bullet-red{fill:#1f2937;stroke:#ef4444;stroke-width:3}.icon{fill:#374151}
  </style></defs>
  <rect class="bg" width="1080" height="1920"/>
  <rect class="zone" x="0" y="0" width="1080" height="300"/>
  <rect class="zone" x="0" y="300" width="1080" height="1020"/>
  <rect class="zone" x="80" y="1320" width="920" height="280"/>
  <rect class="zone" x="0" y="1670" width="1080" height="250"/>
  <rect x="20" y="40" width="1040" height="220" rx="24" class="panel"/>

  <rect x="60" y="330" width="220" height="52" rx="18" fill="#22c55e"/>
  <text class="text" x="120" y="364">PROS</text>

  <rect x="100" y="520" width="880" height="120" rx="24" class="bullet"/>
  <circle class="icon" cx="160" cy="580" r="28"/>
  <text class="text" x="210" y="590">Bullet 1 text here</text>

  <rect x="100" y="700" width="880" height="120" rx="24" class="bullet"/>
  <circle class="icon" cx="160" cy="760" r="28"/>
  <text class="text" x="210" y="770">Bullet 2 text here</text>

  <rect x="100" y="880" width="880" height="120" rx="24" class="bullet"/>
  <circle class="icon" cx="160" cy="940" r="28"/>
  <text class="text" x="210" y="950">Bullet 3 text here</text>

  <rect x="160" y="1280" width="760" height="120" rx="28" fill="#0f172a" stroke="#60a5fa" stroke-width="3" opacity="0.95"/>
  <text class="text" x="275" y="1350">Lifted subtitle zone for bullet sections</text>

  <g transform="translate(414,1710)">
    <circle cx="13" cy="13" r="13" fill="#4b5563"/><circle cx="59" cy="13" r="13" fill="#4b5563"/><circle cx="105" cy="13" r="13" fill="#4b5563"/><circle cx="151" cy="13" r="13" fill="#4b5563"/><circle cx="197" cy="13" r="13" fill="#4b5563"/><circle cx="243" cy="13" r="13" fill="#fbbf24"/><circle cx="289" cy="13" r="13" fill="#4b5563"/>
  </g>
  <text class="note" x="70" y="1880">Duplicate this file and switch chip/bullet stroke to red for CONS. Main tweak point: bullet height vs subtitle lift.</text>
</svg>