<svg xmlns="http://www.w3.org/2000/svg" width="1080" height="1920" viewBox="0 0 1080 1920">
  <defs><style>
    .bg{fill:#16161f}.zone{fill:none;stroke:#6b7280;stroke-width:2;stroke-dasharray:10 10}.panel{fill:#111827;stroke:#f59e0b;stroke-width:4}.text{fill:#fff;font:700 28px Arial,sans-serif}.big{fill:#fff;font:700 72px Arial,sans-serif}.note{fill:#9ca3af;font:22px Arial,sans-serif}.card{fill:#1f2937;stroke:#60a5fa;stroke-width:3}.bubble-fat{fill:#7c3aed}.bubble-carb{fill:#d97706}.bubble-protein{fill:#ef4444}
  </style></defs>
  <rect class="bg" width="1080" height="1920"/>
  <rect class="zone" x="0" y="0" width="1080" height="300"/>
  <rect class="zone" x="0" y="300" width="1080" height="1020"/>
  <rect class="zone" x="80" y="1320" width="920" height="280"/>
  <rect class="zone" x="0" y="1670" width="1080" height="250"/>

  <rect x="20" y="40" width="1040" height="220" rx="24" class="panel"/>
  <text class="text" x="230" y="130">HEADER STAYS FIXED</text>

  <rect x="60" y="330" width="220" height="52" rx="18" fill="#7c3aed"/>
  <text class="text" x="110" y="364">SECTION CHIP</text>

  <circle cx="180" cy="485" r="54" class="bubble-fat"/>
  <text class="text" x="156" y="494">ICON</text>
  <text class="note" x="95" y="570">macro bubble slot</text>

  <rect x="260" y="430" width="700" height="110" rx="28" class="card"/>
  <text class="big" x="330" y="505">42g FAT</text>

  <rect x="120" y="600" width="840" height="120" rx="24" class="card"/>
  <text class="text" x="170" y="668">SUBMETRIC 1</text>
  <rect x="120" y="750" width="840" height="120" rx="24" class="card"/>
  <text class="text" x="170" y="818">SUBMETRIC 2</text>
  <rect x="120" y="900" width="840" height="120" rx="24" class="card"/>
  <text class="text" x="170" y="968">SUBMETRIC 3 / OPTIONAL</text>

  <rect x="80" y="1320" width="920" height="180" rx="28" fill="#0f172a" stroke="#60a5fa" stroke-width="3" opacity="0.95"/>
  <text class="text" x="220" y="1410">Subtitle safe zone for macro scenes</text>

  <g transform="translate(414,1710)">
    <circle cx="13" cy="13" r="13" fill="#4b5563"/><circle cx="59" cy="13" r="13" fill="#fbbf24"/><circle cx="105" cy="13" r="13" fill="#4b5563"/><circle cx="151" cy="13" r="13" fill="#4b5563"/><circle cx="197" cy="13" r="13" fill="#4b5563"/><circle cx="243" cy="13" r="13" fill="#4b5563"/><circle cx="289" cy="13" r="13" fill="#4b5563"/>
  </g>

  <text class="note" x="70" y="1880">Swap bubble color/icon for fats, carbs, proteins. Move bubble + macro headline until it feels right.</text>
</svg>